HIERARCHY
ROOT SpineBase
{
  OFFSET 0.000000 0.000000 0.000000
  CHANNELS 6 Xposition Yposition Zposition Zrotation Xrotation Yrotation
  JOINT SpineMid
  {
    OFFSET 0.000000 25.472859 0.000000
    CHANNELS 3 Zrotation Xrotation Yrotation
    JOINT SpineShoulder
    {
      OFFSET -0.197849 19.113414 -0.554499
      CHANNELS 3 Zrotation Xrotation Yrotation
      JOINT Neck
      {
        OFFSET -0.067953 6.361812 -0.443234
        CHANNELS 3 Zrotation Xrotation Yrotation
        JOINT Head
        {
          OFFSET 3.350606 12.657564 0.163558
          CHANNELS 3 Zrotation Xrotation Yrotation
          End Site
          {
            OFFSET 0 0 0
          }
        }
      }
      JOINT ShoulderLeft
      {
        OFFSET -13.090921 -2.342817 -7.941963
        CHANNELS 3 Zrotation Xrotation Yrotation
        JOINT ElbowLeft
        {
          OFFSET -0.125553 -19.570168 -9.338243
          CHANNELS 3 Zrotation Xrotation Yrotation
          JOINT WristLeft
          {
            OFFSET 11.380880 -16.011414 -10.472690
            CHANNELS 3 Zrotation Xrotation Yrotation
            JOINT HandLeft
            {
              OFFSET 2.887822 -5.004905 -3.799362
              CHANNELS 3 Zrotation Xrotation Yrotation
              JOINT HandTipLeft
              {
                OFFSET 4.112995 -5.028183 -5.058047
                CHANNELS 3 Zrotation Xrotation Yrotation
                End Site
                {
                  OFFSET 0 0 0
                }
              }
              JOINT ThumbLeft
              {
                OFFSET -2.270587 -2.314328 -0.164167
                CHANNELS 3 Zrotation Xrotation Yrotation
                End Site
                {
                  OFFSET 0 0 0
                }
              }
            }
          }
        }
      }
      JOINT ShoulderRight
      {
        OFFSET 14.729774 -4.963867 2.845889
        CHANNELS 3 Zrotation Xrotation Yrotation
        JOINT ElbowRight
        {
          OFFSET 6.928103 -25.001253 -0.541904
          CHANNELS 3 Zrotation Xrotation Yrotation
          JOINT WristRight
          {
            OFFSET 2.847568 -12.384676 -16.426349
            CHANNELS 3 Zrotation Xrotation Yrotation
            JOINT HandRight
            {
              OFFSET 0.607617 -2.986266 -5.859263
              CHANNELS 3 Zrotation Xrotation Yrotation
              JOINT HandTipRight
              {
                OFFSET 2.944204 -5.490360 -4.117298
                CHANNELS 3 Zrotation Xrotation Yrotation
                End Site
                {
                  OFFSET 0 0 0
                }
              }
              JOINT ThumbRight
              {
                OFFSET -1.570567 -3.942752 -2.773424
                CHANNELS 3 Zrotation Xrotation Yrotation
                End Site
                {
                  OFFSET 0 0 0
                }
              }
            }
          }
        }
      }
    }
  }
  JOINT HipLeft
  {
    OFFSET -6.504781 1.187629 -5.868727
    CHANNELS 3 Zrotation Xrotation Yrotation
    JOINT KneeLeft
    {
      OFFSET 12.851853 -2.517598 -27.820164
      CHANNELS 3 Zrotation Xrotation Yrotation
      JOINT AnkleLeft
      {
        OFFSET -1.191500 -35.238616 2.333601
        CHANNELS 3 Zrotation Xrotation Yrotation
        JOINT FootLeft
        {
          OFFSET 3.567601 -7.572932 -3.581704
          CHANNELS 3 Zrotation Xrotation Yrotation
          End Site
          {
            OFFSET 0 0 0
          }
        }
      }
    }
  }
  JOINT HipRight
  {
    OFFSET 6.131828 0.746454 -0.375053
    CHANNELS 3 Zrotation Xrotation Yrotation
    JOINT KneeRight
    {
      OFFSET 22.440813 -3.910668 -19.023024
      CHANNELS 3 Zrotation Xrotation Yrotation
      JOINT AnkleRight
      {
        OFFSET -5.483856 -31.614017 2.046996
        CHANNELS 3 Zrotation Xrotation Yrotation
        JOINT FootRight
        {
          OFFSET 0.182925 -8.136296 -4.945583
          CHANNELS 3 Zrotation Xrotation Yrotation
          End Site
          {
            OFFSET 0 0 0
          }
        }
      }
    }
  }
}
MOTION
Frames: 14
Frame Time: 0.033333
9.651778 38.245395 395.821796 -6.794055 -17.681653 -19.963770 -0.994657 -1.552358 18.620357 1.282398 0.554503 -0.414338 -21.303722 -36.657790 9.985515 0.000000 0.000000 0.000000 131.107767 27.914003 -114.033786 -163.181734 -56.910078 -109.108881 -5.129344 52.246065 35.338167 -8.044902 -31.878645 -18.309257 0.000000 0.000000 0.000000 0.000000 0.000000 0.000000 159.248263 62.265016 -111.090156 -15.178188 -26.579544 -37.123839 0.353722 -10.159013 -6.309510 -41.984191 27.003530 50.318358 0.000000 0.000000 0.000000 0.000000 0.000000 0.000000 2.728225 35.357260 17.264814 3.334396 5.714372 0.449800 -25.752694 18.018829 21.830555 0.000000 0.000000 0.000000 7.688575 36.483454 29.363264 6.084739 -1.813506 -14.396575 -21.626091 25.513935 2.602198 0.000000 0.000000 0.000000
10.848412 39.354875 393.619113 -7.275194 -19.347983 -15.074353 -0.731778 -1.073653 13.493340 1.207928 1.194497 -0.375411 -21.988317 -34.987795 10.196357 0.000000 0.000000 0.000000 132.216186 9.183057 -111.022139 162.154714 -28.456850 -133.583183 -2.193504 2.454643 15.396156 16.765394 38.501767 14.255943 0.000000 0.000000 0.000000 0.000000 0.000000 0.000000 166.898755 59.441287 -118.344992 -15.563284 -30.624096 -37.775784 -0.292549 -8.070787 -6.077139 -26.991107 27.512224 42.612218 0.000000 0.000000 0.000000 0.000000 0.000000 0.000000 6.275125 35.576151 10.302928 2.354155 4.849825 1.104610 -25.182448 19.296954 22.746456 0.000000 0.000000 0.000000 11.356706 36.640010 22.075484 4.346759 -2.309265 -13.509502 -19.507686 24.580641 2.656879 0.000000 0.000000 0.000000
11.883610 40.867303 390.322761 -9.583597 -21.178721 -13.485984 0.176005 -0.220448 11.157526 0.981795 1.239279 -0.387596 -24.232960 -31.523481 10.187582 0.000000 0.000000 0.000000 129.840795 -17.920341 -97.981380 125.508284 5.637135 -139.608411 7.566164 9.977011 25.749005 33.329232 63.006963 14.968178 0.000000 0.000000 0.000000 0.000000 0.000000 0.000000 178.338817 54.428151 -128.321685 -15.935667 -37.425363 -38.370157 -0.490154 -7.095152 -6.018495 -16.357064 24.915470 36.928780 0.000000 0.000000 0.000000 0.000000 0.000000 0.000000 9.674409 36.149057 6.043825 1.159938 3.141754 2.214096 -23.198739 20.031741 22.524921 0.000000 0.000000 0.000000 14.452037 36.772713 17.174948 2.361640 -3.125133 -11.540991 -14.834646 26.087373 1.599755 0.000000 0.000000 0.000000
12.975947 42.357856 386.039589 -12.477565 -21.900013 -11.196432 1.092865 -0.099068 7.988324 0.695395 0.916098 -0.439983 -25.639871 -27.165834 10.376926 0.000000 0.000000 0.000000 -158.279679 -68.813547 89.581086 6.661318 -46.108049 141.611552 21.652931 23.927211 35.013787 68.527863 62.194776 -6.708256 0.000000 0.000000 0.000000 0.000000 0.000000 0.000000 -166.483272 46.869149 -142.610262 -14.265721 -51.073224 -37.599207 -0.818733 -5.075503 -6.012389 -5.940056 29.076024 33.284681 0.000000 0.000000 0.000000 0.000000 0.000000 0.000000 14.450188 35.362096 0.517902 0.003497 1.085930 3.575122 -19.540802 19.939815 20.696576 0.000000 0.000000 0.000000 18.886781 35.079666 9.818065 -1.677899 -5.083648 -7.963492 -5.476928 32.411823 -1.559653 0.000000 0.000000 0.000000
14.606514 43.453566 381.193279 -14.020391 -21.367191 -8.014473 0.925046 -0.811714 4.493094 0.349351 0.565048 -0.491063 -26.665400 -22.810904 10.531511 0.000000 0.000000 0.000000 -3.899983 -50.091565 4.906423 -76.082942 -36.631639 -14.482665 34.223594 13.561912 33.176144 107.138724 48.242257 -20.133062 0.000000 0.000000 0.000000 0.000000 0.000000 0.000000 -154.862799 39.218853 -154.101877 -8.539718 -62.322521 -32.979931 -0.290923 -3.768533 -6.308366 0.462119 31.965988 30.906892 0.000000 0.000000 0.000000 0.000000 0.000000 0.000000 18.354367 33.601781 -4.596056 -1.776850 -2.329220 4.381643 -14.062995 18.685698 17.270471 0.000000 0.000000 0.000000 22.796033 32.026778 1.239937 -5.164303 -6.818292 -3.442636 -2.064974 37.493924 -1.521769 0.000000 0.000000 0.000000
16.215474 44.216656 376.568800 -15.290555 -20.101390 -5.202451 0.094141 -1.463636 1.623318 -0.189731 0.088902 -0.563140 -24.626132 -19.266089 10.397582 0.000000 0.000000 0.000000 -2.688678 -18.940665 9.593341 -98.218519 -61.414212 12.662472 41.541741 0.780985 4.220949 65.465614 20.667146 26.609213 0.000000 0.000000 0.000000 0.000000 0.000000 0.000000 -145.669990 33.116753 -163.331983 5.530089 -67.864999 -20.147526 -0.201132 -5.156084 -6.109871 5.194264 33.916483 28.968116 0.000000 0.000000 0.000000 0.000000 0.000000 0.000000 21.529065 31.358581 -8.579796 -3.563435 -6.190102 4.955998 -7.823889 16.746177 12.803890 0.000000 0.000000 0.000000 25.808959 28.258136 -6.689332 -7.864390 -8.617243 1.551346 5.566878 40.115610 -5.383557 0.000000 0.000000 0.000000
17.259866 44.761416 372.936600 -16.538643 -18.704563 -3.703321 -0.320350 -1.590204 0.096166 -0.440244 -0.395208 -0.680393 -23.783880 -16.673588 10.044737 0.000000 0.000000 0.000000 -2.844662 -8.173045 11.748862 -112.335238 -58.564082 2.774258 19.308650 -2.473191 -17.830173 45.682308 11.543619 74.817190 0.000000 0.000000 0.000000 0.000000 0.000000 0.000000 -138.538184 30.638485 -173.333466 24.958523 -67.877747 -1.940619 -0.550334 -4.612721 -5.640654 -2.886565 42.878633 34.809397 0.000000 0.000000 0.000000 0.000000 0.000000 0.000000 23.768142 29.381487 -11.082253 -4.709490 -9.089611 5.740139 -2.539113 13.730012 8.179598 0.000000 0.000000 0.000000 28.054332 25.075541 -12.835845 -9.290629 -9.606141 6.309038 19.938869 35.818795 -15.523662 0.000000 0.000000 0.000000
18.020557 44.948926 370.597809 -17.382005 -18.234490 -3.520677 -0.317378 -1.635285 -0.197181 -0.432019 -0.755370 -0.779362 -24.563235 -13.993646 10.263635 0.000000 0.000000 0.000000 -4.126305 -5.945195 13.364789 -103.745617 -52.743850 4.408713 2.351354 -4.101054 -20.164903 -82.610431 26.343197 -43.985891 0.000000 0.000000 0.000000 0.000000 0.000000 0.000000 -138.793530 29.058281 -170.192762 17.087168 -60.291008 -8.175795 0.219106 -4.284658 -5.670113 -17.749642 44.228876 44.836397 0.000000 0.000000 0.000000 0.000000 0.000000 0.000000 24.884787 28.815400 -12.021387 -5.159136 -11.452983 6.293386 0.562347 10.417896 4.401948 0.000000 0.000000 0.000000 29.356979 23.765859 -16.486907 -10.275097 -10.313671 9.565449 24.900578 33.129208 -18.535847 0.000000 0.000000 0.000000
18.276589 44.861231 369.839427 -17.522425 -17.886364 -2.852439 -0.369253 -1.790599 -0.860201 -0.233002 -1.161734 -0.876056 -25.586352 -11.697458 10.680723 0.000000 0.000000 0.000000 -6.178453 -4.591660 15.028220 -105.583600 -43.194014 -16.506298 7.795823 -6.427671 -10.213388 54.620050 14.023869 177.579326 0.000000 0.000000 0.000000 0.000000 0.000000 0.000000 -142.298475 31.063263 -163.399849 12.393317 -46.575037 -13.404711 -8.245657 -1.842640 -2.983496 -35.288778 33.417528 47.512290 0.000000 0.000000 0.000000 0.000000 0.000000 0.000000 25.596350 28.483430 -13.001979 -5.293808 -11.803726 6.542491 1.441998 7.169169 2.519415 0.000000 0.000000 0.000000 29.803295 22.753518 -18.507150 -10.827527 -10.795046 11.033420 22.420826 36.376381 -16.310707 0.000000 0.000000 0.000000
17.696122 44.237363 370.512633 -16.943799 -16.280469 -2.635061 0.110939 -1.916707 -0.773078 0.294960 -0.653025 -0.796271 -26.875588 -10.437363 9.893182 0.000000 0.000000 0.000000 -6.892776 -7.909834 13.937142 -88.450466 -42.054478 -0.894901 7.206123 -8.895425 -1.820728 -5.326354 20.592659 -64.805474 0.000000 0.000000 0.000000 0.000000 0.000000 0.000000 -159.761637 38.511784 -136.000644 -20.940602 -23.849196 -40.073563 2.118826 0.214482 -4.052323 -48.392898 20.574845 39.638973 0.000000 0.000000 0.000000 0.000000 0.000000 0.000000 25.510344 27.814627 -13.007051 -5.140196 -11.161313 6.967970 0.560762 6.913819 3.194002 0.000000 0.000000 0.000000 29.593231 21.606962 -17.868107 -11.378214 -10.860040 10.833499 14.533382 39.548951 -9.952135 0.000000 0.000000 0.000000
17.881041 44.565240 371.271527 -16.496246 -18.028025 -3.516834 0.044353 -0.317460 0.169381 0.819028 -0.427534 -0.789794 -25.997272 -9.009924 9.912458 0.000000 0.000000 0.000000 -8.477546 -7.968155 14.443814 -79.403354 -38.131633 2.773723 16.432124 -3.115626 -9.930945 -0.387009 8.628657 -55.424958 0.000000 0.000000 0.000000 0.000000 0.000000 0.000000 -175.030813 37.474338 -112.234346 -35.427113 6.718254 -47.526391 9.360151 2.579786 -2.508487 -46.607266 12.434368 26.445780 0.000000 0.000000 0.000000 0.000000 0.000000 0.000000 24.334124 29.359155 -11.754496 -4.724692 -10.451009 6.279427 0.046007 4.168228 2.188316 0.000000 0.000000 0.000000 28.169688 23.681659 -15.604314 -10.479466 -10.236480 9.094892 11.419054 40.263519 -7.803206 0.000000 0.000000 0.000000
18.024670 44.652957 371.589524 -15.900613 -18.668419 -2.719501 0.058084 0.070755 -0.556106 1.288166 -0.290310 -0.788249 -28.026158 -7.145618 10.307721 0.000000 0.000000 0.000000 -10.101622 -8.100055 14.931222 -69.865472 -33.846364 8.766382 15.584407 -3.283082 -27.188357 -4.852858 3.750484 -39.959655 0.000000 0.000000 0.000000 0.000000 0.000000 0.000000 168.429866 32.551827 -87.156510 -50.879891 37.169126 -47.020470 14.597994 4.780747 -0.343871 -44.408121 11.077061 20.288298 0.000000 0.000000 0.000000 0.000000 0.000000 0.000000 23.933212 29.454797 -12.204098 -4.442138 -10.088969 5.987106 -0.544005 5.890664 3.173580 0.000000 0.000000 0.000000 30.241839 25.225344 -16.914561 -12.613613 -12.173538 8.123955 16.218531 35.212886 -11.277958 0.000000 0.000000 0.000000
17.852934 44.820458 372.407451 -16.008166 -19.896205 -4.966391 0.532576 0.468422 1.460640 1.370538 0.020241 -0.746249 -28.718871 -4.675331 10.887524 0.000000 0.000000 0.000000 -10.979021 -7.566678 15.406357 -65.016764 -31.430778 13.302804 8.163941 -4.862762 -52.620418 -3.210269 4.359684 -16.666496 0.000000 0.000000 0.000000 0.000000 0.000000 0.000000 161.412730 26.396088 -74.270137 -62.143729 50.103876 -43.286231 14.219515 6.289564 0.762793 -41.538911 8.675774 16.342896 0.000000 0.000000 0.000000 0.000000 0.000000 0.000000 22.724412 31.164589 -9.865097 -4.077714 -9.462491 5.664641 -1.560090 6.989138 4.150285 0.000000 0.000000 0.000000 25.517405 25.856560 -11.359502 -8.343107 -9.053550 6.575956 12.440610 33.373581 -9.334694 0.000000 0.000000 0.000000
17.591793 44.206057 371.382321 -15.623756 -18.128360 -3.924993 0.317915 -0.253407 0.704323 1.738422 -0.623696 -0.846656 -28.116313 -3.612851 10.658999 0.000000 0.000000 0.000000 -11.146132 -7.631442 15.186285 -57.279098 -26.477397 19.542657 -0.398305 -7.143342 -76.726319 -1.112027 7.977287 6.189255 0.000000 0.000000 0.000000 0.000000 0.000000 0.000000 160.362864 21.985671 -68.126163 -70.425613 51.032925 -43.056018 14.543609 3.846309 -1.120637 -41.081088 10.227984 21.547851 0.000000 0.000000 0.000000 0.000000 0.000000 0.000000 23.603853 30.058247 -11.863783 -4.414189 -10.508462 6.952812 -3.193425 14.312116 8.195167 0.000000 0.000000 0.000000 26.889743 24.114068 -14.262002 -9.587678 -9.973009 8.628791 10.348426 32.015569 -7.455781 0.000000 0.000000 0.000000
